<?xml version="1.0" encoding="UTF-8" standalone="no"?>
<!DOCTYPE svg PUBLIC "-//W3C//DTD SVG 1.1//EN"
 "http://www.w3.org/Graphics/SVG/1.1/DTD/svg11.dtd">
<!-- Generated by graphviz version 5.0.0 (20220707.1540)
 -->
<!-- Title: dependencies Pages: 1 -->
<svg width="322pt" height="250pt"
 viewBox="0.00 0.00 322.00 249.80" xmlns="http://www.w3.org/2000/svg" xmlns:xlink="http://www.w3.org/1999/xlink">
<g id="graph0" class="graph" transform="scale(1 1) rotate(0) translate(4 245.8)">
<title>dependencies</title>
<polygon fill="white" stroke="transparent" points="-4,4 -4,-245.8 318,-245.8 318,4 -4,4"/>
<text text-anchor="middle" x="157" y="-8.2" font-family="sans-serif" font-size="14.00">dependencies</text>
<g id="clust1" class="cluster">
<title>cluster_AppModule</title>
<polygon fill="none" stroke="black" stroke-dasharray="1,5" points="8,-108.8 8,-233.8 286,-233.8 286,-108.8 8,-108.8"/>
</g>
<g id="clust3" class="cluster">
<title>cluster_AppModule_imports</title>
<polygon fill="none" stroke="black" points="154,-116.8 154,-168.8 278,-168.8 278,-116.8 154,-116.8"/>
</g>
<g id="clust6" class="cluster">
<title>cluster_AppModule_providers</title>
<polygon fill="none" stroke="black" points="16,-116.8 16,-168.8 146,-168.8 146,-116.8 16,-116.8"/>
</g>
<g id="clust7" class="cluster">
<title>cluster_ProductsModule</title>
<polygon fill="none" stroke="black" stroke-dasharray="1,5" points="126,-32.8 126,-100.8 306,-100.8 306,-32.8 126,-32.8"/>
</g>
<g id="clust12" class="cluster">
<title>cluster_ProductsModule_providers</title>
<polygon fill="none" stroke="black" points="134,-40.8 134,-92.8 298,-92.8 298,-40.8 134,-40.8"/>
</g>
<!-- ProductsModule -->
<g id="node1" class="node">
<title>ProductsModule</title>
<polygon fill="#8dd3c7" stroke="black" points="270.05,-160.8 267.05,-164.8 246.05,-164.8 243.05,-160.8 161.95,-160.8 161.95,-124.8 270.05,-124.8 270.05,-160.8"/>
<text text-anchor="middle" x="216" y="-138.6" font-family="Times,serif" font-size="14.00">ProductsModule</text>
</g>
<!-- AppModule -->
<g id="node2" class="node">
<title>AppModule</title>
<polygon fill="#8dd3c7" stroke="black" points="189.66,-225.8 186.66,-229.8 165.66,-229.8 162.66,-225.8 106.34,-225.8 106.34,-189.8 189.66,-189.8 189.66,-225.8"/>
<text text-anchor="middle" x="148" y="-203.6" font-family="Times,serif" font-size="14.00">AppModule</text>
</g>
<!-- ProductsModule&#45;&gt;AppModule -->
<g id="edge1" class="edge">
<title>ProductsModule&#45;&gt;AppModule</title>
<path fill="none" stroke="black" d="M175.78,-160.91C175.78,-160.91 175.78,-179.79 175.78,-179.79"/>
<polygon fill="black" stroke="black" points="172.28,-179.79 175.78,-189.79 179.28,-179.79 172.28,-179.79"/>
</g>
<!-- AppService -->
<g id="node3" class="node">
<title>AppService</title>
<ellipse fill="#fdb462" stroke="black" cx="81" cy="-142.8" rx="56.75" ry="18"/>
<text text-anchor="middle" x="81" y="-138.6" font-family="Times,serif" font-size="14.00">AppService</text>
</g>
<!-- AppService&#45;&gt;AppModule -->
<g id="edge2" class="edge">
<title>AppService&#45;&gt;AppModule</title>
<path fill="none" stroke="black" d="M121.9,-155.33C121.9,-155.33 121.9,-179.65 121.9,-179.65"/>
<polygon fill="black" stroke="black" points="118.4,-179.65 121.9,-189.65 125.4,-179.65 118.4,-179.65"/>
</g>
<!-- ProductsService -->
<g id="node4" class="node">
<title>ProductsService</title>
<ellipse fill="#fdb462" stroke="black" cx="216" cy="-66.8" rx="73.59" ry="18"/>
<text text-anchor="middle" x="216" y="-62.6" font-family="Times,serif" font-size="14.00">ProductsService</text>
</g>
<!-- ProductsService&#45;&gt;ProductsModule -->
<g id="edge3" class="edge">
<title>ProductsService&#45;&gt;ProductsModule</title>
<path fill="none" stroke="black" d="M216,-84.81C216,-84.81 216,-114.65 216,-114.65"/>
<polygon fill="black" stroke="black" points="212.5,-114.65 216,-124.65 219.5,-114.65 212.5,-114.65"/>
</g>
</g>
</svg>
